# xmcd
#
# Track frame offsets:
#	150
#	21450
#	37050
#	60150
#	84825
#	100650
#	124050
#	144150
#	171900
#	190500
#	209250
#
# Disc length: 2991 seconds
#
# Revision: 1
# Processed by: cddbd v1.5PL3 Copyright (c) Steve Scherf et al.
# Submitted via: audiograbber 1.82.01
#
DISCID=870bad0b
DTITLE=Dan Baird - 1991-01-04 - Lonestar Roadhouse - WNEW F.M.
DYEAR=1900
DGENRE=
TTITLE0=Dan Baird - The One I Am
TTITLE1=Dan Baird - Keep Your Hands To Yourself
TTITLE2=Dan Baird - Julie and Lucky
TTITLE3=Dan Baird - Look At What You Started
TTITLE4=Dan Baird - Six Years Gone
TTITLE5=Dan Baird - Dixie Beauxderant
TTITLE6=Dan Baird - Lost Highway
TTITLE7=Dan Baird - All Over But The Cryin'
TTITLE8=Dan Baird - Knocked Up
TTITLE9=Dan Baird - I Love You Period
TTITLE10=Dan Baird - Seriously Gone
EXTD=
EXTT0=
EXTT1=
EXTT2=
EXTT3=
EXTT4=
EXTT5=
EXTT6=
EXTT7=
EXTT8=
EXTT9=
EXTT10=
PLAYORDER=
